PathFileType	4	(X/Y/Z)	Kaydara	
DataRate	CameraRate	NumFrames	NumMarkers	Units	OrigDataRate	OrigDataStartFrame	OrigNumFrames	
120.00	120.00	4	72	mm	120.00	1	268	
Frame#	Time	Hips			RightUpLeg			RightLeg			RightFoot			RightFoot_End			LeftUpLeg			LeftLeg			LeftFoot			LeftFoot_End			Spine			Spine1			Spine2			Spine3			Neck			Head			Head_End			RightShoulder			RightArm			RightForeArm			RightHand			RightHandThumb1			RightHandThumb2			RightHandThumb3			RightHandThumb3_End			RightInHandIndex			RightHandIndex1			RightHandIndex2			RightHandIndex3			RightHandIndex3_End			RightInHandMiddle			RightHandMiddle1			RightHandMiddle2			RightHandMiddle3			RightHandMiddle3_End			RightInHandRing			RightHandRing1			RightHandRing2			RightHandRing3			RightHandRing3_End			RightInHandPinky			RightHandPinky1			RightHandPinky2			RightHandPinky3			RightHandPinky3_End			LeftShoulder			LeftArm			LeftForeArm			LeftHand			LeftHandThumb1			LeftHandThumb2			LeftHandThumb3			LeftHandThumb3_End			LeftInHandIndex			LeftHandIndex1			LeftHandIndex2			LeftHandIndex3			LeftHandIndex3_End			LeftInHandMiddle			LeftHandMiddle1			LeftHandMiddle2			LeftHandMiddle3			LeftHandMiddle3_End			LeftInHandRing			LeftHandRing1			LeftHandRing2			LeftHandRing3			LeftHandRing3_End			LeftInHandPinky			LeftHandPinky1			LeftHandPinky2			LeftHandPinky3			LeftHandPinky3_End			
		X1	Y1	Z1	X2	Y2	Z2	X3	Y3	Z3	X4	Y4	Z4	X5	Y5	Z5	X6	Y6	Z6	X7	Y7	Z7	X8	Y8	Z8	X9	Y9	Z9	X10	Y10	Z10	X11	Y11	Z11	X12	Y12	Z12	X13	Y13	Z13	X14	Y14	Z14	X15	Y15	Z15	X16	Y16	Z16	X17	Y17	Z17	X18	Y18	Z18	X19	Y19	Z19	X20	Y20	Z20	X21	Y21	Z21	X22	Y22	Z22	X23	Y23	Z23	X24	Y24	Z24	X25	Y25	Z25	X26	Y26	Z26	X27	Y27	Z27	X28	Y28	Z28	X29	Y29	Z29	X30	Y30	Z30	X31	Y31	Z31	X32	Y32	Z32	X33	Y33	Z33	X34	Y34	Z34	X35	Y35	Z35	X36	Y36	Z36	X37	Y37	Z37	X38	Y38	Z38	X39	Y39	Z39	X40	Y40	Z40	X41	Y41	Z41	X42	Y42	Z42	X43	Y43	Z43	X44	Y44	Z44	X45	Y45	Z45	X46	Y46	Z46	X47	Y47	Z47	X48	Y48	Z48	X49	Y49	Z49	X50	Y50	Z50	X51	Y51	Z51	X52	Y52	Z52	X53	Y53	Z53	X54	Y54	Z54	X55	Y55	Z55	X56	Y56	Z56	X57	Y57	Z57	X58	Y58	Z58	X59	Y59	Z59	X60	Y60	Z60	X61	Y61	Z61	X62	Y62	Z62	X63	Y63	Z63	X64	Y64	Z64	X65	Y65	Z65	X66	Y66	Z66	X67	Y67	Z67	X68	Y68	Z68	X69	Y69	Z69	X70	Y70	Z70	X71	Y71	Z71	X72	Y72	Z72	

1	0.0	4446.805	859.65103	-201.189	4544.7922398154515	857.9406435948366	-233.41467446324285	4390.004057132527	471.1124689817152	-300.09237112099817	4408.413837936746	36.90256558671158	-342.6069213293813	4310.8747743589765	-35.731084073763455	-178.49576005668297	4359.282371547455	834.1603086290063	-154.53974092223757	4239.649069083068	434.82550765697505	-108.49114579630127	4188.813735825394	55.73797475593355	57.34708905381254	4211.355774188788	10.503349653252606	241.9480929204621	4395.069914163433	978.5383440145059	-262.3515083551973	4338.108947602526	1039.3649915775527	-312.6793994299131	4271.390029951722	1094.573470214133	-365.4865007774867	4199.229954339489	1136.7053843836156	-416.2059232788012	4121.408682142891	1182.2907987506107	-466.98984435752044	4078.9477535331653	1254.0113584940773	-421.63028780852653	4056.1568062178585	1338.5092490772297	-287.43650518654573	4168.637665776988	1173.912356391219	-472.1258584812353	4252.727751875381	1169.7122866883697	-559.9501063346294	4301.6944579312	933.2177218133909	-585.3877660898879	4384.387522408495	792.4090964181248	-656.0227511612874	4382.996848296566	787.9935854041471	-674.4342651180875	4368.098467302158	781.0146371096466	-689.4326073300679	4359.32342863968	774.497082275748	-698.0276188394048	4353.3769815339365	767.6458019981208	-703.6104171091037	4390.53961434132	781.2338649861994	-669.5141699558972	4397.499955292395	759.7970071115922	-683.177249003864	4392.012639835291	747.0863021729488	-692.5686923899501	4381.086853990065	743.409150897736	-698.7899358401557	4366.974946481732	743.2155299340558	-704.1973243706356	4394.158579110523	777.5770066666632	-664.001804395533	4402.907932698355	754.6895137878847	-674.3467521573918	4397.362212736397	740.4093793512437	-683.822875835809	4384.392756916447	735.7761928939188	-690.9582119343152	4369.054873724729	735.4686475794311	-696.6948243621612	4396.654508191941	775.502957060923	-659.7504695875771	4407.003894187651	753.0810180871466	-665.3071831201362	4402.60694685138	740.2515951234859	-672.7615285532512	4390.328784903864	735.5792353747256	-679.2165825187743	4376.017197670132	735.1937427274703	-684.4078413912844	4398.409868473573	774.0290626901979	-654.5192488824098	4409.378423028731	752.4223465093988	-656.3677392842981	4406.4928531892	741.6498548526271	-661.0567162613202	4397.844448048742	738.0003575976683	-665.1457887845852	4385.343581481779	737.5199093882801	-669.388004193493	4125.239725930963	1163.7659798160173	-426.01673956717434	4066.146199738251	1096.521686426543	-339.2622001531555	4173.815947060043	946.5552340189512	-517.4611375495414	4367.93921014594	845.6648856574362	-509.8009891502456	4352.912143305159	846.9707816128307	-515.9781325366024	4352.449825196805	842.9827920558135	-545.7879464817098	4353.574123720295	838.4227084991122	-568.6031427370565	4355.748635401842	833.0959833135447	-589.3817284419617	4355.469707596752	840.6257332646438	-522.3423567462838	4347.183082015905	826.6313953191301	-555.9403636744335	4348.083518955396	817.2870835014365	-587.7151417246275	4351.767821202552	814.2323983924599	-607.7953355076972	4356.924890822051	813.5621481483666	-624.635484831404	4360.008609475026	836.282502470312	-527.1629292576339	4354.379274429737	820.283477954148	-562.5384709546653	4355.995935466652	809.5597822605446	-597.7486394193609	4360.745208878703	805.6214402642214	-622.2326156955188	4366.535908562395	804.7650859487511	-640.7841913459691	4363.36691336876	833.552679372566	-529.6461877502175	4361.061924162463	816.7907149740607	-563.3148925224766	4363.12866546866	806.930472266196	-594.4986247044384	4368.058978279763	802.8589768008266	-618.3779286743385	4373.6692040979915	801.9245856536684	-635.9455100314163	4367.949425331968	830.9571340227496	-532.0478011040516	4368.456760105574	813.9166073851374	-564.2015051148448	4371.148237280147	805.2931182064386	-589.797286775953	4375.2458197446795	801.9713059048507	-607.5172830320911	4380.504125399559	800.9409802602643	-623.253302849261
2	0.008	4446.805	859.65103	-201.189	4544.764342822429	857.9930675527245	-233.3605566047332	4390.0695966776875	471.1335720269086	-299.90813314156645	4408.598968048233	36.9955063892154	-342.4037643996849	4311.1986169785805	-35.66599614613026	-178.3108932030623	4359.3008283308845	834.0961313940804	-154.61021480792104	4239.65677346583	434.7665658128002	-108.58620615496339	4188.823275808788	55.74500583559507	57.456923000233736	4211.5101398057195	10.665529838585574	242.0741892348046	4395.112939848111	978.5866067935245	-262.2833717229796	4338.192256388507	1039.47449034946	-312.5734885080974	4271.474607124391	1094.6865029440066	-365.3559497673526	4199.378858424582	1136.9117871804865	-416.0725419483377	4121.627971189448	1182.5974301545737	-466.85633828827775	4079.213859936883	1254.3399165066332	-421.47662464854807	4056.429925493413	1338.7872391487258	-287.2536701127864	4168.861755395014	1174.260556419771	-471.9547522081541	4253.1096240665465	1170.4137217445546	-559.7029058769316	4302.687714746291	933.9285611304392	-585.6136966932424	4385.843788713783	793.5919055190135	-656.8994612649708	4384.676819881189	789.3499254795462	-675.2750068631767	4369.9609439742735	782.4565447100524	-690.4395912016656	4361.293590140271	775.9843627601188	-699.1676269735847	4355.420309621772	769.1587457596438	-704.8760820463601	4392.17186335728	782.5622438581865	-670.3982720368751	4399.32336217189	761.2644571343247	-684.2024331195377	4393.961924580845	748.6127060062718	-693.7731886571095	4383.111451917851	744.9522330896638	-700.125443134474	4369.059894659395	744.7589442817338	-705.6544441180578	4395.731038498736	778.8600800044867	-664.9317792594067	4404.634503512082	756.0837376852094	-675.4391240537423	4399.217623089967	741.8614572128297	-685.1166097356067	4386.334942273235	737.2452847072648	-692.4127388934811	4371.061106031942	736.9365919044704	-698.2837464972864	4398.179831975716	776.75079181667	-660.7085703363405	4408.62636743148	754.3988089738483	-666.4332414299521	4404.332768226141	741.6130135539516	-674.0686690339323	4392.133555123512	736.9534548668328	-680.6817809379558	4377.879936304323	736.5651722433861	-686.0008078028363	4399.875455504757	775.2297424517084	-655.5110595891707	4410.896295572495	753.6592331416379	-657.5321349125148	4408.079097702238	742.9107635177153	-662.3740845987555	4399.4813194296075	739.2653244934764	-666.5823002080787	4387.027798871744	738.7793667237161	-670.9399158942514	4125.403306372291	1163.9597456383988	-425.9125456495877	4066.1572818590457	1096.4534036913756	-339.39612357698246	4174.041733180437	946.9777615156268	-517.9894685237545	4368.618824677283	846.6901669581214	-510.3682331740688	4353.674717779502	848.1831912070184	-516.6633689961901	4353.333886958336	844.3039672114858	-546.4989344095039	4354.52833490399	839.8076564310676	-569.3245192435807	4356.748962242049	834.5238545247314	-590.1053110749212	4356.180453863986	841.8195496660813	-523.0202750567985	4347.920824364168	828.0074025705705	-556.7208846846604	4348.880779881967	818.7516726893499	-588.5195146461491	4352.634122745993	815.7267031224552	-608.5866212786315	4357.869947181581	815.0639449113845	-625.3971084351097	4360.681039278137	837.4356015575275	-527.8144959107053	4355.057298540666	821.5922671864106	-563.2758730463604	4356.733814082343	810.9592206940704	-598.5081996039521	4361.56393863268	807.0538451412427	-622.9745298275111	4367.439622488049	806.2042860812317	-641.4927472416329	4364.011081022703	834.672708357028	-530.2769723287055	4361.685101154071	818.0225780698996	-564.0058910492286	4363.798803696934	808.2349526691527	-595.2048409864543	4368.804337575304	804.1918600314617	-619.0649495700462	4374.493159558164	803.2622494731296	-636.6001347333821	4368.56419748444	832.0310444214781	-532.6480857119145	4369.03247926524	815.0658793460333	-564.8397703363131	4371.753531009212	806.4900743565938	-590.4410828668908	4375.902095702111	803.1839173373022	-608.1438591845069	4381.2277890302275	802.1549134329214	-623.8493280621668
3	0.017	4446.805	859.65103	-201.189	4544.730275247058	858.0293730788825	-233.30462406326617	4390.13447917912	471.1298641191344	-299.68200663719966	4408.770634832416	37.077851103460965	-342.20770742678127	4311.513620275552	-35.61933365139962	-178.14097309004788	4359.322842087341	834.0497166885252	-154.67780940691682	4239.665216804558	434.7331261078661	-108.6277141596152	4188.826704365133	55.77470174973614	57.59902632403354	4211.6464119648845	10.812094033863138	242.22106118686503	4395.167753187698	978.6286657688598	-262.2358401034437	4338.289293837527	1039.5719873617236	-312.4973820581793	4271.615124498152	1094.8422072413543	-365.2580189920198	4199.577849692255	1137.1516468484165	-415.9704177100494	4121.889594807666	1182.9259572812532	-466.7517882644069	4079.5129027641087	1254.6896234094993	-421.3648396301606	4056.7270083356207	1339.1118059862958	-287.1312842527105	4169.1181163950805	1174.6146838028806	-471.8155878457679	4253.473388602752	1171.0680416263617	-559.4872126482319	4303.536724470536	934.6547470623582	-585.7465557808702	4387.039083576798	794.8275658105621	-657.5719386894743	4386.050543323562	790.7374183461282	-675.9143324347142	4371.476778857656	783.9309942079648	-691.215470488738	4362.892422746531	777.5086745999558	-700.0529238494717	4357.074674102143	770.715476644855	-705.8648479999073	4393.5059621155815	783.9309123662925	-671.0730381541497	4400.804963618526	762.7725515003549	-684.9895136674113	4395.539511006363	750.1880033348054	-694.707112414066	4384.746616846355	746.5508332598458	-701.1679787992117	4370.741303709467	746.3643689157177	-706.7985595847872	4397.01625517253	780.1933902504604	-665.6448543995699	4406.037151622231	757.5339228889853	-676.2824493370417	4400.718073108704	743.3798194192409	-686.1249466627352	4387.901529754412	738.7892871204148	-693.5544037777571	4372.676674968841	738.4868587685534	-699.5376725430671	4399.426742207181	778.0558244468843	-661.4452632529653	4409.945244866999	755.7847999042	-667.3054652577133	4405.729615313421	743.0529718418569	-675.089401018149	4393.59033351051	738.4152478237866	-681.8336052744208	4379.3809391728055	738.0314818409835	-687.2593644257084	4401.073999772418	776.4960902747841	-656.276300023349	4412.13105405843	754.9769061129588	-658.4373678497307	4409.36462758207	744.2627849356074	-663.4049565039253	4400.804921100556	740.6289829753041	-667.7120419827463	4388.387329330501	740.1445579706993	-672.1660758820708	4125.625568910357	1164.1993835752255	-425.8385335629747	4066.2731663268873	1096.513649670011	-339.53576064227406	4174.282190935693	947.4613521811802	-518.390913721489	4369.15179346707	847.7204743392191	-510.74869447084313	4354.292414290131	849.3733205859149	-517.1396841077585	4354.067470650346	845.5825772642607	-546.9920044407855	4355.329941277007	841.1388484318874	-569.822499126399	4357.596427752112	835.8911514661353	-590.6016025955788	4356.754264742854	842.9989381673065	-523.4885908333373	4348.536878051512	829.3508496741935	-557.2662085148024	4349.559353473372	820.171961764991	-589.0787269142648	4353.3767989555245	817.1689071494326	-609.1322055004543	4358.6827015860335	816.5068454872246	-625.9163961448801	4361.220463701807	838.5829291450931	-528.259862818222	4355.619316383316	822.8822810109928	-563.7839494200449	4357.359420896447	812.328275169106	-599.0281040657927	4362.264659692339	808.447031561093	-623.4763955623489	4368.2159411707025	807.5971130457393	-641.9650638520162	4364.524722539522	835.7935507688145	-530.7045347722171	4362.195407590976	819.2493364821612	-564.4752938532125	4364.359768605445	809.5254592910615	-595.6810490709711	4369.43522423976	805.5029114189582	-619.5218972915351	4375.193928123501	804.5716684887684	-637.0284165058152	4369.050135310336	833.113830696375	-533.0499489052149	4369.496914073142	816.2235862773211	-565.2654462435164	4372.25111282701	807.6903379915267	-590.8665560885702	4376.447090721949	804.3950593861783	-608.5525503538252	4381.8326222148635	803.3622462428153	-624.2310517585292
4	0.025	4446.805	859.65103	-201.189	4544.689074340384	858.0523651751647	-233.24860910702463	4390.200326928407	471.1057414383972	-299.42758809999265	4408.9393760511975	37.152496770826566	-342.02261509847614	4311.830781506432	-35.58682562671585	-177.98862368195518	4359.3502246301505	834.0179898170138	-154.74185707000763	4239.6784825380855	434.720400595732	-108.62307363384338	4188.82890605994	55.821869763106314	57.76709356648219	4211.772922556661	10.944969899930456	242.38426726290373	4395.230703388393	978.6655289470806	-262.204156536614	4338.395663402706	1039.6598106634058	-312.44378379257876	4271.797458855139	1095.0306206877158	-365.18428439611205	4199.814279013729	1137.4174807264021	-415.8911332291375	4122.182805392669	1183.271875911866	-466.6679914545727	4079.8358076388035	1255.0554290322514	-421.2831777029883	4057.0405311524155	1339.4703055103425	-287.052197351064	4169.397869762512	1174.9735363894051	-471.69954531695913	4253.819078356698	1171.68104960183	-559.2918923303639	4304.265808864993	935.3906653741293	-585.8005002368277	4388.030217300289	796.1006011821488	-658.0744124100058	4387.182419295221	792.144816474893	-676.3849119088395	4372.719424506672	785.4256399909013	-691.7963070347914	4364.199368281507	779.056123569045	-700.7226700805022	4358.424240467542	772.300138854699	-706.6190890996037	4394.605755997183	785.3265429060306	-671.5733648621438	4402.018727739786	764.3068584535284	-685.5783152362706	4396.827074480615	751.7951684584665	-695.4151673925427	4386.078650423629	748.1860351322227	-701.9650930238481	4372.109193008982	748.0111352417846	-707.6794510528607	4398.076898172626	781.5614295908617	-666.1778273759584	4407.187782886826	759.0223058160284	-676.9193601195716	4401.943691612574	744.9435854410647	-686.8960794724665	4389.178139818628	740.3849012630698	-694.4349471558314	4373.991225126442	740.094165157777	-700.5108383582899	4400.456811673145	779.4010480293864	-661.9985543068809	4411.02940594696	757.2186998257195	-667.968112405378	4406.873328912601	744.5481728988966	-675.8730617750757	4394.780148683647	739.938830822646	-682.7249385083029	4380.604966694475	739.5649498019509	-688.2387989825154	4402.065570754498	777.8092997290893	-656.8542964478029	4413.148523299854	756.3524812606494	-659.1292840589086	4410.4204890491865	745.6801905949862	-664.1995814678129	4401.889912653078	742.063579622303	-668.588012324595	4389.500039932175	741.5858909322592	-673.1217061355957	4125.892397206652	1164.4750263166843	-425.78640713158387	4066.469258159554	1096.6755261039675	-339.677903358452	4174.533238008588	947.9925103332755	-518.6904115776076	4369.566756998124	848.7544656356605	-510.9815648619901	4354.793719754515	850.5451167271283	-517.4487921274861	4354.678827969445	846.8262729565878	-547.3092521861868	4356.006602080583	842.4259322989592	-570.1394782661886	4358.317830685745	837.2086887826813	-590.9132788917503	4357.217928148713	844.1662941694717	-523.7896523072334	4349.0542526955405	830.6674679669561	-557.6224317895076	4350.14041271201	821.5557362444065	-589.4399984584892	4354.016958356626	818.568141602025	-609.4788720522444	4359.3849360203085	817.9011412019221	-626.2390057122138	4361.65267407132	839.7251683684992	-528.5412716269686	4356.086894762213	824.1565303497476	-564.108540644398	4357.892200364216	813.6719610548191	-599.3553909446615	4362.866681969844	809.807524581803	-623.7847115232112	4368.8848838158365	808.9513058972947	-642.2464009717886	4364.933010006218	836.9145945163441	-530.9709619067643	4362.613658038192	820.4713386219315	-564.7683254886007	4364.830410693691	810.8038416178263	-595.973482812103	4369.970298602755	806.7953060522663	-619.7944669356262	4375.790808163691	805.857097304016	-637.2748769835147	4369.431898080567	834.2032946341682	-533.2950638744719	4369.870370746923	817.3874326181779	-565.5228840205915	4372.659557325242	808.8924276793987	-591.1187981863327	4376.899163688976	805.6040299122046	-608.7880224580691	4382.3375050104705	804.5631247420223	-624.4420816560063
